# AST/ASF file generated using VICON BodyLanguage
# -----------------------------------------------
:version 1.10
:name VICON
:units
  mass 1.0
  length 0.45
  angle deg
:documentation
   .ast/.asf automatically generated from VICON data using
   VICON BodyBuilder and BodyLanguage model FoxedUp or BRILLIANT.MOD
:root
   order TX TY TZ RX RY RZ
   axis XYZ
   position 0 0 0  
   orientation 0 0 0 
:bonedata
  begin
     id 1 
     name lhipjoint
     direction 0.610259 -0.730986 0.305356 
     length 2.50941 
     axis 0 0 0  XYZ
  end
  begin
     id 2 
     name lfemur
     direction 0.34202 -0.939693 0  
     length 7.48822  
     axis 0 0 20  XYZ
    dof rx ry rz
    limits (-160.0 20.0)
           (-70.0 70.0)
           (-60.0 70.0)
  end
  begin
     id 3 
     name ltibia
     direction 0.34202 -0.939693 0   
     length 7.60141   
     axis 0 0 20   XYZ
    dof rx
    limits (-10.0 170.0)
  end
  begin
     id 4 
     name lfoot
     direction 0.0673488 -0.185039 0.980421   
     length 2.04049   
     axis -90 7.62852e-016 20   XYZ
    dof rx rz
    limits (-45.0 90.0)
           (-70.0 20.0)
  end
  begin
     id 5 
     name ltoes
     direction 1.5356e-011 -4.21729e-011 1   
     length 1.02897   
     axis -90 7.62852e-016 20   XYZ
    dof rx
    limits (-90.0 20.0)
  end
  begin
     id 6 
     name rhipjoint
     direction -0.57612 -0.754205 0.315056   
     length 2.43216  
     axis 0 0 0  XYZ 
  end
  begin
     id 7 
     name rfemur
     direction -0.34202 -0.939693 0   
     length 7.42799   
     axis 0 0 -20   XYZ
    dof rx ry rz
    limits (-160.0 20.0)
           (-70.0 70.0)
           (-70.0 60.0)
  end
  begin
     id 8 
     name rtibia
     direction -0.34202 -0.939693 0   
     length 7.69484   
     axis 0 0 -20   XYZ
    dof rx
    limits (-10.0 170.0)
 end
 begin
     id 9 
     name rfoot
     direction -0.111837 -0.30727 0.945028   
     length 2.15769  
     axis -90 -7.62852e-016 -20   XYZ
    dof rx rz
    limits (-45.0 90.0)
           (-20.0 70.0)
  end
  begin
     id 10 
     name rtoes
     direction -1.53539e-011 -4.21878e-011 1   
     length 1.07391   
     axis -90 -7.62852e-016 -20   XYZ
    dof rx
    limits (-90.0 20.0)
  end
  begin
     id 11 
     name lowerback
     direction 0.00552624 0.990109 -0.140195   
     length 2.12403   
     axis 0 0 0   XYZ
    dof rx ry rz
    limits (-20.0 45.0)
           (-30.0 30.0)
           (-30.0 30.0)
  end
  begin
     id 12 
     name upperback
     direction 0.00361898 0.999976 -0.00584723   
     length 2.13232   
     axis 0 0 0   XYZ
    dof rx ry rz
    limits (-20.0 45.0)
           (-30.0 30.0)
           (-30.0 30.0)
  end
  begin
     id 13 
     name thorax
     direction -0.000331275 0.998253 0.0590847   
     length 2.17688   
     axis 0 0 0   XYZ
    dof rx ry rz
    limits (-20.0 45.0)
           (-30.0 30.0)
           (-30.0 30.0)
  end
  begin
     id 14 
     name lowerneck
     direction -0.0561561 0.979832 0.19177   
     length 1.64159   
     axis 0 0 0   XYZ
    dof rx ry rz
    limits (-20.0 45.0)
           (-30.0 30.0)
           (-30.0 30.0)
  end
  begin
     id 15 
     name upperneck
     direction 0.0827153 0.979385 -0.184293   
     length 1.68939   
     axis 0 0 0   XYZ
    dof rx ry rz
    limits (-20.0 45.0)
           (-30.0 30.0)
           (-30.0 30.0)
  end
  begin
     id 16
     name head
     direction 0.0278583 0.995936 -0.0856488  
     length 1.70207  
     axis 0 0 0   XYZ
    dof rx ry rz
    limits (-20.0 45.0)
           (-30.0 30.0)
           (-30.0 30.0)
  end
  begin
     id 17 
     name lclavicle
     direction 0.950993 0.301131 -0.0702275  
     length 3.41652  
     axis 0 0 0   XYZ
    dof ry rz
    limits (-20.0 10.0)
           (0.0 20.0)
  end
  begin
     id 18 
     name lhumerus
     direction 1 -4.48981e-011 -3.9662e-029   
     length 5.32955   
     axis 180 -30 -90   XYZ
    dof rx ry rz
    limits (-60.0 90.0)
           (-90.0 90.0)
           (-90.0 90.0)
  end
  begin
     id 19
     name lradius
     direction 1 -4.48925e-011 -9.0549e-027   
     length 3.69232   
     axis 180 -30 -90   XYZ
    dof rx
    limits (-10.0 170.0)
  end
  begin
     id 20
     name lwrist
     direction 1 -4.49007e-011 -1.49005e-026   
     length 1.84616   
     axis 9.0955e-015 90 90   XYZ
    dof ry
    limits (-180.0 0.0)
 end
  begin
     id 21 
     name lhand
     direction 1 -4.49016e-011 -2.98023e-026   
     length 0.536598   
     axis 1.90115e-014 90 90   XYZ
    dof rx rz
    limits (-90.0 90.0)
           (-45.0 45.0)
  end
  begin
     id 22 
     name lfingers
     direction 1 -4.48924e-011 -5.9578e-026   
     length 0.432619   
     axis 3.80223e-014 90 90   XYZ
    dof rx
    limits (0.0 90.0)
  end
  begin
     id 23
     name lthumb
     direction 0.707107 -6.34947e-011 0.707107   
     length 0.621157   
     axis -90 45 -3.84942e-014   XYZ
    dof rx rz
    limits (-45.0 45.0)
           (-45.0 45.0)
  end
  begin
     id 24 
     name rclavicle
     direction -0.955495 0.276497 -0.102848   
     length 3.36357  
     axis 0 0 0   XYZ 
    dof ry rz
    limits (-10.0 20.0)
           (-20.0 0.0)
  end
  begin
     id 25 
     name rhumerus
     direction -1 -4.48961e-011 3.30983e-027  
     length 5.23431   
     axis 180 30 90   XYZ
    dof rx ry rz
    limits (-90.0 60.0)
           (-90.0 90.0)
           (-90.0 90.0)
  end
  begin
     id 26 
     name rradius
     direction -1 -4.48965e-011 -6.63263e-027   
     length 3.55301   
     axis 180 30 90   XYZ
    dof rx
    limits (-10.0 170.0)
  end
  begin
     id 27 
     name rwrist
     direction -1 -4.48942e-011 -1.48958e-026   
     length 1.77651   
     axis 9.0955e-015 -90 -90   XYZ
    dof ry
    limits (-180.0 0.0)
  end
  begin
     id 28
     name rhand
     direction -1 -4.48977e-011 -2.97966e-026   
     length 0.772522   
     axis 1.90115e-014 -90 -90   XYZ
    dof rx rz
    limits (-90.0 90.0)
           (-45.0 45.0)
  end
  begin
     id 29
     name rfingers
     direction -1 -4.49135e-011 -5.96389e-026   
     length 0.622827   
     axis 3.80223e-014 -90 -90   XYZ
    dof rx
    limits (0.0 90.0)
  end
  begin
     id 30
     name rthumb
     direction -0.707107 -6.34969e-011 0.707107   
     length 0.894259   
     axis -90 -45 3.84942e-014   XYZ
    dof rx rz
    limits (-45.0 45.0)
           (-45.0 45.0)
  end
:hierarchy
  begin
    root lhipjoint rhipjoint lowerback
    lhipjoint lfemur
    lfemur ltibia
    ltibia lfoot
    lfoot ltoes
    rhipjoint rfemur
    rfemur rtibia
    rtibia rfoot
    rfoot rtoes
    lowerback upperback
    upperback thorax
    thorax lowerneck lclavicle rclavicle
    lowerneck upperneck
    upperneck head
    lclavicle lhumerus
    lhumerus lradius
    lradius lwrist
    lwrist lhand lthumb
    lhand lfingers
    rclavicle rhumerus
    rhumerus rradius
    rradius rwrist
    rwrist rhand rthumb
    rhand rfingers
  end

#!OML:ASF F:\VICON\USERDATA\INSTALL\rory3\rory3.ASF
:FULLY-SPECIFIED
:DEGREES
64
root 15.6384 17.8394 -10.1801 2.56318 -43.3582 2.06199
lowerback 7.14981 0.212777 -1.71203
upperback -1.72002 0.129723 0.100313
thorax -5.81156 0.125634 1.05119
lowerneck -21.6224 -5.12303 -11.6418
upperneck 24.0004 -5.89029 9.06715
head 12.1335 -2.5891 4.38096
rclavicle -3.885e-014 9.34288e-015
rhumerus -33.5285 -12.0028 -82.4317
rradius 30.067
rwrist 12.2402
rhand -10.3142 10.3801
rfingers 7.12502
rthumb 15.6811 -19.0045
lclavicle -3.885e-014 9.34288e-015
lhumerus -33.9364 3.18315 84.7489
lradius 30.0162
lwrist -9.41895
lhand -15.3022 24.5845
lfingers 7.12502
lthumb 10.8733 54.283
rfemur -13.0468 1.62858 23.1812
rtibia 33.635
rfoot -20.8538 -0.628785
rtoes 6.54988
lfemur -9.50488 -0.943932 -22.9718
ltibia 25.0717
lfoot -15.2792 -6.20195
ltoes 0.630892
65
root 15.6269 17.8359 -10.1798 2.52228 -43.3275 2.11745
lowerback 7.17623 0.212003 -1.6828
upperback -1.67398 0.127812 0.038364
thorax -5.77784 0.121927 0.970445
lowerneck -21.59 -4.88831 -11.1769
upperneck 24.1022 -5.66516 8.84349
head 12.1138 -2.47568 4.25781
rclavicle -4.1223e-014 1.78906e-015
rhumerus -33.5403 -12.1774 -82.4636
rradius 30.0542
rwrist 12.2218
rhand -10.2355 10.5249
rfingers 7.12502
rthumb 15.7569 -18.8537
lclavicle -4.1223e-014 1.78906e-015
lhumerus -33.8895 2.91188 84.6809
lradius 29.984
lwrist -9.19314
lhand -14.8859 24.6528
lfingers 7.12502
lthumb 11.2748 54.3298
rfemur -12.9865 1.56851 23.1414
rtibia 33.5741
rfoot -20.8601 -0.442497
rtoes 6.96989
lfemur -9.57853 -1.0321 -23.0067
ltibia 25.2703
lfoot -15.2933 -6.08758
ltoes 0.378114
66
root 15.6134 17.8347 -10.1798 2.47317 -43.386 2.23041
lowerback 7.18955 0.254873 -1.75711
upperback -1.66934 0.174283 -0.0241843
thorax -5.78209 0.146227 0.941415
lowerneck -21.4456 -4.81184 -10.9905
upperneck 24.0849 -5.61028 8.74947
head 12.0621 -2.44918 4.19924
rclavicle 9.08819e-014 -5.86415e-015
rhumerus -33.6253 -12.079 -82.5873
rradius 30.1267
rwrist 11.9097
rhand -10.3231 10.3415
rfingers 7.12502
rthumb 15.6725 -19.0437
lclavicle 9.08819e-014 -5.86415e-015
lhumerus -33.9305 2.88969 84.5658
lradius 30
lwrist -9.20739
lhand -14.6201 25.2425
lfingers 7.12502
lthumb 11.5312 54.9053
rfemur -12.9592 1.45283 23.0578
rtibia 33.509
rfoot -20.8549 -0.22125
rtoes 6.79703
lfemur -9.70727 -0.875393 -23.084
ltibia 25.5179
lfoot -15.3068 -6.08721
ltoes 0.0235197
67
root 15.5988 17.8297 -10.1811 2.47841 -43.4948 2.21606
lowerback 7.1798 0.308319 -1.76609
upperback -1.64407 0.244635 -0.0350963
thorax -5.75208 0.180616 0.926665
lowerneck -21.2519 -4.9714 -11.2417
upperneck 23.9511 -5.79158 8.84421
head 12.0064 -2.54501 4.24382
rclavicle 1.96797e-014 -6.55989e-015
rhumerus -33.7827 -11.8531 -82.6763
rradius 30.3016
rwrist 11.5705
rhand -10.3133 10.0072
rfingers 7.12502
rthumb 15.682 -19.3773
lclavicle 1.96797e-014 -6.55989e-015
lhumerus -33.972 2.93506 84.4982
lradius 29.9682
lwrist -9.34539
lhand -14.807 25.8529
lfingers 7.12502
lthumb 11.3509 55.5257
rfemur -12.8931 1.23178 23.0957
rtibia 33.4227
rfoot -20.8522 -0.0140933
rtoes 5.53711
lfemur -9.81763 -0.821397 -23.0466
ltibia 25.8411
lfoot -15.5743 -5.96011
ltoes -0.806562
68
root 15.5839 17.8216 -10.185 2.58851 -43.5162 1.98073
lowerback 7.21102 0.303298 -1.59796
upperback -1.58593 0.255607 5.74252e-005
thorax -5.70819 0.180258 0.867495
lowerneck -21.2992 -5.06793 -11.434
upperneck 23.8888 -5.91872 9.07149
head 12.0223 -2.58924 4.34051
rclavicle -9.47954e-015 -1.64991e-014
rhumerus -33.8572 -11.6633 -82.7386
rradius 30.3705
rwrist 11.3488
rhand -10.4083 9.89524
rfingers 7.12502
rthumb 15.5904 -19.4964
lclavicle -9.47954e-015 -1.64991e-014
lhumerus -34.0052 3.12448 84.3683
lradius 29.8928
lwrist -9.59982
lhand -14.6674 26.0386
lfingers 7.12502
lthumb 11.4855 55.7039
rfemur -12.7558 1.15046 23.3342
rtibia 33.3016
rfoot -20.8609 0.0192142
rtoes 4.42908
lfemur -9.93326 -0.846687 -22.8161
ltibia 26.2606
lfoot -15.6883 -6.00408
ltoes -0.0524161
69
root 15.5693 17.8173 -10.1901 2.67423 -43.5804 1.79784
lowerback 7.28722 0.297852 -1.52412
upperback -1.55005 0.257962 0.0668486
thorax -5.71384 0.179978 0.89512
lowerneck -21.3899 -4.85644 -11.1498
upperneck 24.2083 -5.65015 8.8018
head 12.1114 -2.47843 4.24345
rclavicle 9.20994e-014 1.0635e-014
rhumerus -33.8589 -11.6594 -82.7186
rradius 30.3046
rwrist 11.4338
rhand -10.5015 9.97133
rfingers 7.12502
rthumb 15.5007 -19.4273
lclavicle 9.20994e-014 1.0635e-014
lhumerus -34.077 3.22571 84.3239
lradius 29.8181
lwrist -9.38066
lhand -14.8705 25.8458
lfingers 7.12502
lthumb 11.2897 55.522
rfemur -12.6071 1.21421 23.5233
rtibia 33.1427
rfoot -20.8235 0.172659
rtoes 4.61388
lfemur -10.0942 -0.782405 -22.623
ltibia 26.7747
lfoot -15.4438 -6.21515
ltoes 1.8015
70
root 15.5538 17.8155 -10.1953 2.85744 -43.7538 1.54361
lowerback 7.38073 0.330994 -1.50012
upperback -1.56341 0.311492 0.220587
thorax -5.78341 0.208974 1.03499
lowerneck -21.4177 -4.80686 -11.0939
upperneck 24.2979 -5.51532 8.51178
head 12.124 -2.44994 4.14704
rclavicle 3.04762e-014 -5.36719e-015
rhumerus -33.8729 -11.5584 -82.6356
rradius 30.2319
rwrist 11.5577
rhand -10.4513 9.96104
rfingers 7.12502
rthumb 15.549 -19.4339
lclavicle 3.04762e-014 -5.36719e-015
lhumerus -34.2589 3.13124 84.4366
lradius 29.8806
lwrist -8.69024
lhand -15.9362 25.5634
lfingers 7.12502
lthumb 10.2617 55.2931
rfemur -12.5198 1.31504 23.7559
rtibia 32.984
rfoot -20.8091 0.477902
rtoes 5.49198
lfemur -10.3111 -0.676741 -22.3936
ltibia 27.3155
lfoot -15.7499 -5.9507
ltoes -0.163908
71
root 15.541 17.8152 -10.2005 3.03393 -43.8325 1.28106
lowerback 7.51907 0.342841 -1.43949
upperback -1.57444 0.338091 0.346859
thorax -5.87505 0.223065 1.12882
lowerneck -21.3031 -5.01254 -11.4991
upperneck 24.1745 -5.7145 8.65506
head 12.097 -2.55988 4.23338
rclavicle -2.99792e-014 3.97569e-015
rhumerus -33.9423 -11.2871 -82.6597
rradius 30.2802
rwrist 11.4207
rhand -10.3872 10.0063
rfingers 7.12502
rthumb 15.6108 -19.3837
lclavicle -2.99792e-014 3.97569e-015
lhumerus -34.4186 3.26221 84.3942
lradius 30.0187
lwrist -8.47448
lhand -16.4684 25.3041
lfingers 7.12502
lthumb 9.7483 55.0585
rfemur -12.4065 1.4671 24.004
rtibia 32.8308
rfoot -20.7886 0.574957
rtoes 6.44267
lfemur -10.5623 -0.632774 -22.1667
ltibia 27.8774
lfoot -16.5175 -5.39473
ltoes -4.65753
72
root 15.5281 17.8131 -10.2033 3.09343 -43.9328 1.17456
lowerback 7.5639 0.395315 -1.32064
upperback -1.51433 0.417233 0.311274
thorax -5.83845 0.256672 1.01489
lowerneck -21.4522 -5.07289 -11.4336
upperneck 24.3119 -5.81087 8.63742
head 12.1891 -2.59706 4.20169
rclavicle -3.34579e-014 -5.1684e-015
rhumerus -33.908 -11.3805 -82.7286
rradius 30.2214
rwrist 11.4222
rhand -10.4235 10.0499
rfingers 7.12502
rthumb 15.5758 -19.3429
lclavicle -3.34579e-014 -5.1684e-015
lhumerus -34.3723 3.32177 84.2439
lradius 30.0262
lwrist -8.66229
lhand -16.1707 25.5095
lfingers 7.12502
lthumb 10.0355 55.2503
rfemur -12.304 1.65478 24.1275
rtibia 32.7353
rfoot -20.8382 0.616076
rtoes 6.83652
lfemur -10.803 -0.661858 -22.0727
ltibia 28.4057
lfoot -16.605 -5.22169
ltoes -5.03623
73
root 15.5169 17.8068 -10.2043 2.99026 -43.6481 0.998683
lowerback 7.80299 0.325537 -1.01816
upperback -1.39561 0.349222 0.276841
thorax -5.84529 0.211546 0.81675
lowerneck -21.4194 -4.78122 -10.9946
upperneck 24.4528 -5.53464 8.54127
head 12.1846 -2.44757 4.14282
rclavicle 6.96989e-015 3.18055e-015
rhumerus -33.9011 -11.4955 -82.7449
rradius 30.1807
rwrist 11.3264
rhand -10.465 10.1022
rfingers 7.12502
rthumb 15.5358 -19.2937
lclavicle 6.96989e-015 3.18055e-015
lhumerus -34.2231 3.34439 84.1117
lradius 29.82
lwrist -8.99268
lhand -16.0415 25.5862
lfingers 7.12502
lthumb 10.1601 55.3209
rfemur -11.9951 1.38986 24.3332
rtibia 32.6889
rfoot -20.9401 0.717896
rtoes 6.40356
lfemur -10.8527 -0.89048 -21.8843
ltibia 28.9251
lfoot -16.1959 -5.52657
ltoes -2.24549
74
root 15.5061 17.7956 -10.2085 2.98492 -43.4904 0.863912
lowerback 7.99051 0.29263 -0.839623
upperback -1.34946 0.320553 0.261526
thorax -5.90156 0.191083 0.703477
lowerneck -21.0793 -5.11979 -11.6086
upperneck 24.194 -5.93163 8.89339
head 12.0996 -2.64338 4.3084
rclavicle 4.33723e-014 4.67144e-015
rhumerus -34.0008 -11.6131 -82.7376
rradius 30.2408
rwrist 11.3438
rhand -10.5071 10.0944
rfingers 7.12502
rthumb 15.4953 -19.3047
lclavicle 4.33723e-014 4.67144e-015
lhumerus -34.1386 3.23512 84.0308
lradius 29.681
lwrist -9.04583
lhand -16.1448 25.3608
lfingers 7.12502
lthumb 10.0605 55.1004
rfemur -11.8604 0.899523 24.4682
rtibia 32.6378
rfoot -21.0013 1.15116
rtoes 6.16796
lfemur -11.0959 -1.0858 -21.7252
ltibia 29.5157
lfoot -16.1369 -5.40174
ltoes -2.1912
75
root 15.4953 17.784 -10.2123 2.98878 -43.4045 0.757257
lowerback 8.1468 0.269468 -0.766708
upperback -1.29769 0.298365 0.305611
thorax -5.93541 0.178344 0.710964
lowerneck -21.1804 -5.12421 -11.584
upperneck 24.4225 -5.94459 8.86701
head 12.2086 -2.65078 4.29787
rclavicle -3.50482e-014 -6.95746e-016
rhumerus -34.016 -11.7517 -82.6305
rradius 30.2002
rwrist 11.6182
rhand -10.5471 10.236
rfingers 7.12502
rthumb 15.4568 -19.1661
lclavicle -3.50482e-014 -6.95746e-016
lhumerus -34.2129 3.16081 84.0199
lradius 29.842
lwrist -8.84886
lhand -16.2405 25.1905
lfingers 7.12502
lthumb 9.96815 54.9345
rfemur -11.7122 0.498247 24.5702
rtibia 32.5164
rfoot -21.0851 1.524
rtoes 5.75547
lfemur -11.411 -1.14625 -21.6213
ltibia 30.257
lfoot -16.0487 -5.03157
ltoes -3.29123
76
root 15.4823 17.7905 -10.2152 3.06975 -43.2763 0.648025
lowerback 8.2105 0.213712 -0.717984
upperback -1.2485 0.233595 0.393936
thorax -5.91888 0.146068 0.784172
lowerneck -21.5298 -4.77461 -11.11
upperneck 24.8701 -5.55446 8.7081
head 12.3824 -2.44945 4.23637
rclavicle -7.35876e-014 9.93923e-015
rhumerus -33.9588 -11.6232 -82.5985
rradius 30.1677
rwrist 11.7227
rhand -10.7391 10.0446
rfingers 7.12502
rthumb 15.2718 -19.3716
lclavicle -7.35876e-014 9.93923e-015
lhumerus -34.3135 3.49809 83.9482
lradius 30.063
lwrist -8.91578
lhand -15.7718 25.3755
lfingers 7.12502
lthumb 10.4203 55.0973
rfemur -11.5809 0.472187 24.7018
rtibia 32.3305
rfoot -21.0381 1.61178
rtoes 6.10211
lfemur -11.8285 -0.950529 -21.5351
ltibia 31.1311
lfoot -15.8631 -4.80779
ltoes -4.32821
77
root 15.4639 17.8026 -10.2235 3.31817 -43.4584 0.432715
lowerback 8.20941 0.279345 -0.701076
upperback -1.27757 0.328081 0.483127
thorax -5.95118 0.193849 0.855264
lowerneck -20.921 -5.08791 -11.7426
upperneck 24.284 -5.84452 8.81988
head 12.0948 -2.63158 4.3211
rclavicle 7.07673e-014 2.18663e-015
rhumerus -34.0033 -11.4062 -82.6085
rradius 30.132
rwrist 11.6526
rhand -10.7582 10.0538
rfingers 7.12502
rthumb 15.2535 -19.3638
lclavicle 7.07673e-014 2.18663e-015
lhumerus -34.6304 4.11542 83.7211
lradius 30.5172
lwrist -9.30957
lhand -15.0004 25.7739
lfingers 7.12502
lthumb 11.1643 55.4569
rfemur -11.5229 0.764773 24.9395
rtibia 32.0589
rfoot -20.8247 1.62729
rtoes 6.10506
lfemur -12.4264 -0.387843 -21.3562
ltibia 32.1513
lfoot -16.1041 -4.54072
ltoes -8.12528
